'--
@startuml

skinparam defaultFontName Hasklig
skinparam dpi 150
'==
class Aluno {

    - id: str

    - discps: map<str, Discp>
    __

    + Aluno(id: str)

    + getId(): str

    + getDiscps(): List<Discp>

    ' retorna o nome do aluno e o nome das disciplinas matriculadas
    + toString(): str
    '
    __vincular__

    ' cria o vínculo bidirecional aluno disciplina
    + addDiscp(discp: Discp)

    __desvincular__

    + rmDiscp(idDiscp: str)
}

class Discp {

    - id: str

    - alunos: map<str, Aluno>
    __

    + Discp(id: str)

    + getId(): str

    + getAlunos(): List<Aluno>

    ' mostra o id da disciplina e o nome dos alunos matriculados
    + toString(): str

    __vincular__

    ' cria o vínculo bidirecional aluno disciplina
    + addAluno(aluno: Aluno)

    __desvincular__
    '
    + rmAluno(idAluno: str)
}

class Sistema {
    '
    - discps: map<str, Discp>
    '
    - alunos: map<str, Aluno>
    '
    __
    '
    + Sistema()

    ' mostra os alunos e disciplinas cadastradas
    + toString(): str

    __cadastrar__

    ' adiciona um aluno com esse id no sistema
    + addAluno(idAluno: str)

    ' adiciona uma disciplina com esse id no sistema
    + addDiscp(idDiscp: str)
    
    __vincular__
    
    + getAlunos(): List<Aluno>
    
    + getDiscps(): List<Discp>
    
    ' recupera os objetos aluno e disciplina e vincula-os
    + matricular(idAluno: str, idDiscp: str)
    
    __desvincular__
    
    + desmatricular(idAluno: str, idDiscp: str)
    '
    __remover__
    
    ' remove um aluno com esse id do sistema desfazendo todos os vínculos
    + removerAluno(idAluno: str)
    
    ' remove uma disciplina com esse id do sistema desfazendo todos os vínculos
    + removerDiscp(idDiscp: str)
}
'--

left to right direction

Sistema "1" *-- "0..*" Aluno
Sistema "1" *-- "0..*" Discp

Discp "0..*" --o "1" Aluno
Discp "1" o-- "0..*" Aluno

@enduml
